HIERARCHY
ROOT joint_Root
{
	OFFSET 0.0 0.0 0.0
	CHANNELS 6 Xposition Yposition Zposition Zrotation Xrotation Yrotation 
	JOINT Hips
	{
		OFFSET -0.726466 93.3139 -2.00062
		CHANNELS 6 Xposition Yposition Zposition Zrotation Xrotation Yrotation 
		JOINT Spine
		{
			OFFSET 15.7357 0.0 0.0
			CHANNELS 6 Xposition Yposition Zposition Zrotation Xrotation Yrotation 
			JOINT Chest
			{
				OFFSET 8.98455 -0.406207 0.0
				CHANNELS 6 Xposition Yposition Zposition Zrotation Xrotation Yrotation 
				JOINT Neck
				{
					OFFSET 16.3773 0.0 0.0
					CHANNELS 6 Xposition Yposition Zposition Zrotation Xrotation Yrotation 
					JOINT Head
					{
						OFFSET 6.45672 0.0 0.0
						CHANNELS 6 Xposition Yposition Zposition Zrotation Xrotation Yrotation 
						End Site
						{
							OFFSET 0.0 0.0 0.0
						}
					}
				}
				JOINT Shoulder_L
				{
					OFFSET 12.9942 -0.242716 4.98039
					CHANNELS 6 Xposition Yposition Zposition Zrotation Xrotation Yrotation 
					JOINT UpperArm_L
					{
						OFFSET 5.34809 0.0 0.0
						CHANNELS 6 Xposition Yposition Zposition Zrotation Xrotation Yrotation 
						JOINT LowerArm_L
						{
							OFFSET 24.3286 1.87007e-05 0.0
							CHANNELS 6 Xposition Yposition Zposition Zrotation Xrotation Yrotation 
							JOINT Hand_L
							{
								OFFSET 22.2916 0.0 0.0
								CHANNELS 6 Xposition Yposition Zposition Zrotation Xrotation Yrotation 
								End Site
								{
									OFFSET 0.0 0.0 0.0
								}
							}
						}
					}
				}
				JOINT Shoulder_R
				{
					OFFSET 12.9945 -0.242716 -4.98039
					CHANNELS 6 Xposition Yposition Zposition Zrotation Xrotation Yrotation 
					JOINT UpperArm_R
					{
						OFFSET -5.34813 0.0 0.0
						CHANNELS 6 Xposition Yposition Zposition Zrotation Xrotation Yrotation 
						JOINT LowerArm_R
						{
							OFFSET -24.3289 0.000322201 0.0
							CHANNELS 6 Xposition Yposition Zposition Zrotation Xrotation Yrotation 
							JOINT Hand_R
							{
								OFFSET -22.2915 -0.000108084 0.0
								CHANNELS 6 Xposition Yposition Zposition Zrotation Xrotation Yrotation 
								End Site
								{
									OFFSET 0.0 0.0 0.0
								}
							}
						}
					}
				}
			}
		}
		JOINT UpperLeg_L
		{
			OFFSET -2.19248 -6.46944 0.0
			CHANNELS 6 Xposition Yposition Zposition Zrotation Xrotation Yrotation 
			JOINT LowerLeg_L
			{
				OFFSET 39.0811 0.0 -1.23785e-05
				CHANNELS 6 Xposition Yposition Zposition Zrotation Xrotation Yrotation 
				JOINT Foot_L
				{
					OFFSET 40.9854 0.0 -1.26872e-05
					CHANNELS 6 Xposition Yposition Zposition Zrotation Xrotation Yrotation 
					JOINT Toes_L
					{
						OFFSET 11.7543 0.0 0.0
						CHANNELS 6 Xposition Yposition Zposition Zrotation Xrotation Yrotation 
						End Site
						{
							OFFSET 0.0 0.0 0.0
						}
					}
				}
			}
		}
		JOINT UpperLeg_R
		{
			OFFSET -2.19251 6.46944 0.0
			CHANNELS 6 Xposition Yposition Zposition Zrotation Xrotation Yrotation 
			JOINT LowerLeg_R
			{
				OFFSET -39.0811 -0.00228153 -0.0401928
				CHANNELS 6 Xposition Yposition Zposition Zrotation Xrotation Yrotation 
				JOINT Foot_R
				{
					OFFSET -40.9854 0.0 0.0
					CHANNELS 6 Xposition Yposition Zposition Zrotation Xrotation Yrotation 
					JOINT Toes_R
					{
						OFFSET -11.7543 0.0 0.0
						CHANNELS 6 Xposition Yposition Zposition Zrotation Xrotation Yrotation 
						End Site
						{
							OFFSET 0.0 0.0 0.0
						}
					}
				}
			}
		}
	}
}
MOTION
Frames:	7
Frame Time:	0.0333333
0.000000 0.000000 0.000000 0.000000 0.000000 -0.000000 135.541000 91.814800 -154.456000 89.420400 3.595440 1.401820 15.735700 0.000005 -0.000001 91.608500 80.270000 -90.004800 8.984550 -0.406207 -0.000000 11.680300 0.596417 3.145440 16.377300 -0.000001 -0.000001 5.791650 -5.015980 2.400040 6.456720 -0.000001 -0.000000 -2.787640 -5.946410 -3.798160 12.994200 -0.242716 4.980390 -88.987100 -2.859030 -70.482800 5.348090 -0.000007 -0.000001 -67.391500 29.744400 -5.468110 24.328600 0.000019 0.000005 4.071110 4.339900 -43.243100 22.291600 -0.000001 0.000005 4.138880 5.549460 -8.680560 12.994500 -0.242716 -4.980390 89.161300 2.124330 -68.449300 -5.348130 -0.000001 -0.000004 -55.447600 32.538900 -22.144100 -24.328900 0.000322 -0.000009 2.373740 2.952920 -38.836000 -22.291500 -0.000108 -0.000004 6.219470 5.516550 -7.216150 -2.192480 -6.469440 -0.000000 -175.688000 -7.105480 -21.789200 39.081100 -0.000007 -0.000012 0.076777 -0.047571 58.215400 40.985400 -0.000006 -0.000013 1.374070 0.641849 -57.937800 11.754300 -0.000000 0.000003 -0.004079 -0.052263 -18.702700 -2.192510 6.469440 -0.000001 -178.293000 14.321600 168.929000 -39.081100 -0.002282 -0.040193 0.025267 -0.038145 29.934900 -40.985400 0.000008 0.000006 6.008810 -4.815870 -65.590200 -11.754300 -0.000006 -0.000006 -0.007802 -0.086411 -20.091600
0.000000 0.000000 0.000000 0.000000 0.000000 -0.000000 135.637000 92.228800 -151.828000 89.938000 2.670450 1.411220 15.735700 0.000005 -0.000001 94.304300 80.318200 -93.182100 8.984550 -0.406207 -0.000000 11.532200 1.478330 2.094510 16.377300 -0.000001 -0.000001 5.478970 -4.973450 2.187410 6.456720 -0.000001 -0.000000 -3.012650 -6.585440 -3.909830 12.994200 -0.242716 4.980390 -89.002300 -2.722070 -69.862000 5.348090 -0.000007 -0.000001 -68.224300 28.557600 -3.505390 24.328600 0.000019 0.000005 4.019980 4.448070 -42.181900 22.291600 -0.000001 0.000005 3.989080 5.546140 -8.524770 12.994500 -0.242716 -4.980390 89.277200 1.869170 -68.853600 -5.348130 -0.000001 -0.000004 -53.239700 32.257100 -25.362700 -24.328900 0.000322 -0.000009 2.398400 2.844910 -40.174100 -22.291500 -0.000108 -0.000004 6.218440 5.520690 -7.391320 -2.192480 -6.469440 -0.000000 -177.006000 -8.425380 -23.235600 39.081100 -0.000007 -0.000012 0.051903 -0.044490 49.395300 40.985400 -0.000006 -0.000013 0.581499 0.446590 -58.704100 11.754300 -0.000000 0.000003 -0.004556 -0.057115 -18.900400 -2.192510 6.469440 -0.000001 -179.348000 14.447700 172.448000 -39.081100 -0.002282 -0.040193 0.014921 -0.022887 26.902600 -40.985400 0.000008 0.000006 5.725280 -3.783790 -65.942000 -11.754300 -0.000006 -0.000006 -0.007525 -0.084112 -19.997700
0.000000 0.000000 0.000000 0.000000 0.000000 -0.000000 135.722000 92.231200 -149.248000 89.968200 1.544430 1.370790 15.735700 0.000005 -0.000001 96.984700 80.302000 -96.166400 8.984550 -0.406207 -0.000000 11.476600 2.366070 1.398390 16.377300 -0.000001 -0.000001 5.041380 -4.763830 1.874790 6.456720 -0.000001 -0.000000 -3.159690 -6.990210 -3.888610 12.994200 -0.242716 4.980390 -89.073400 -2.435650 -69.162600 5.348090 -0.000007 -0.000001 -68.698200 27.291300 -1.800990 24.328600 0.000019 0.000005 4.354190 4.978100 -41.265400 22.291600 -0.000001 0.000005 3.983820 5.542370 -8.350270 12.994500 -0.242716 -4.980390 89.335600 1.759260 -69.307000 -5.348130 -0.000001 -0.000004 -50.474400 31.777900 -28.916800 -24.328900 0.000322 -0.000009 2.206330 2.509140 -41.364500 -22.291500 -0.000108 -0.000004 6.478470 5.525190 -7.584920 -2.192480 -6.469440 -0.000000 -177.695000 -9.714700 -23.966800 39.081100 -0.000007 -0.000012 0.030583 -0.038088 38.761400 40.985400 -0.000006 -0.000013 0.260234 0.003554 -57.957600 11.754300 -0.000000 0.000003 -0.004517 -0.056723 -18.884400 -2.192510 6.469440 -0.000001 -179.923000 14.265800 175.098000 -39.081100 -0.002282 -0.040193 0.009698 -0.013480 25.350300 -40.985400 0.000008 0.000006 5.463120 -2.838130 -66.919200 -11.754300 -0.000006 -0.000006 -0.007572 -0.084503 -20.013700
0.000000 0.000000 0.000000 0.000000 0.000000 -0.000000 135.818000 91.875500 -146.565000 89.384500 0.131966 1.445050 15.735700 0.000005 -0.000001 99.845000 80.180800 -99.107100 8.984550 -0.406207 -0.000000 11.576100 3.354820 1.135410 16.377300 -0.000001 -0.000001 4.511390 -4.425950 1.660740 6.456720 -0.000001 -0.000000 -3.229630 -7.154540 -3.927580 12.994200 -0.242716 4.980390 -89.165300 -2.103800 -68.352300 5.348090 -0.000007 -0.000001 -69.058700 26.169600 -0.370093 24.328600 0.000019 0.000005 4.341400 5.145630 -40.246300 22.291600 -0.000001 0.000005 4.490390 5.544620 -8.454510 12.994500 -0.242716 -4.980390 89.361000 1.724740 -69.668600 -5.348130 -0.000001 -0.000004 -47.280800 31.123700 -32.739300 -24.328900 0.000322 -0.000009 1.954130 2.152350 -42.272700 -22.291500 -0.000108 -0.000004 6.780840 5.527730 -7.695390 -2.192480 -6.469440 -0.000000 -177.440000 -10.703700 -23.747600 39.081100 -0.000007 -0.000012 0.014686 -0.028803 27.015400 40.985400 -0.000006 -0.000013 -0.001529 -0.289550 -57.075800 11.754300 -0.000000 0.000003 -0.004655 -0.058094 -18.940300 -2.192510 6.469440 -0.000001 179.973000 14.092600 177.394000 -39.081100 -0.002282 -0.040193 0.005219 -0.004113 24.871900 -40.985400 0.000008 0.000006 5.226400 -1.565650 -68.463700 -11.754300 -0.000006 -0.000006 -0.008021 -0.088201 -20.164700
0.000000 0.000000 0.000000 0.000000 0.000000 -0.000000 135.959000 91.213000 -143.683000 88.247500 -1.615080 1.511550 15.735700 0.000005 -0.000001 102.835000 80.034100 -101.998000 8.984550 -0.406207 -0.000000 11.660900 4.419310 1.221840 16.377300 -0.000001 -0.000001 4.038600 -3.957650 1.461180 6.456720 -0.000001 -0.000000 -3.157380 -7.121930 -3.806260 12.994200 -0.242716 4.980390 -89.244600 -1.831730 -67.583100 5.348090 -0.000007 -0.000001 -69.520400 25.008300 1.168010 24.328600 0.000019 0.000005 4.255390 5.193530 -39.419900 22.291600 -0.000001 0.000005 5.005890 5.544720 -8.459250 12.994500 -0.242716 -4.980390 89.381000 1.708420 -70.079600 -5.348130 -0.000001 -0.000004 -44.267400 30.253000 -36.317400 -24.328900 0.000322 -0.000009 1.776980 1.917740 -42.851000 -22.291500 -0.000108 -0.000004 6.985480 5.525500 -7.597510 -2.192480 -6.469440 -0.000000 -176.277000 -11.574100 -22.814900 39.081100 -0.000007 -0.000012 0.004588 -0.016957 15.141800 40.985400 -0.000006 -0.000013 0.233585 -0.163259 -56.850300 11.754300 -0.000000 0.000003 -0.004824 -0.059757 -19.008000 -2.192510 6.469440 -0.000001 -179.711000 13.659000 179.431000 -39.081100 -0.002282 -0.040193 -0.001493 0.010232 25.155300 -40.985400 0.000008 0.000006 5.053120 -0.377775 -70.459000 -11.754300 -0.000006 -0.000006 -0.007926 -0.087425 -20.133000
0.000000 0.000000 0.000000 0.000000 0.000000 -0.000000 136.210000 90.368300 -140.488000 87.149500 -3.655460 1.753440 15.735700 0.000005 -0.000001 105.449000 79.822800 -104.568000 8.984550 -0.406207 -0.000000 11.849900 5.407170 1.200690 16.377300 -0.000001 -0.000001 3.847590 -3.358990 1.399810 6.456720 -0.000001 -0.000000 -3.093500 -6.882550 -3.598340 12.994200 -0.242716 4.980390 -89.264100 -1.729230 -66.941100 5.348090 -0.000007 -0.000001 -70.098800 23.905700 2.621000 24.328600 0.000019 0.000005 4.262670 5.393940 -38.410600 22.291600 -0.000001 0.000005 5.330760 5.543240 -8.390880 12.994500 -0.242716 -4.980390 89.418900 1.652530 -70.624800 -5.348130 -0.000001 -0.000004 -42.240000 29.177100 -39.416100 -24.328900 0.000322 -0.000009 1.789240 1.956940 -42.470000 -22.291500 -0.000108 -0.000004 7.316430 5.528680 -7.737240 -2.192480 -6.469440 -0.000000 -175.104000 -13.093000 -21.856100 39.081100 -0.000007 -0.000012 0.000530 -0.005188 5.837040 40.985400 -0.000006 -0.000013 0.230700 0.365507 -57.335900 11.754300 -0.000000 0.000003 -0.005715 -0.068236 -19.353700 -2.192510 6.469440 -0.000001 -179.785000 13.079300 -178.260000 -39.081100 -0.002282 -0.040193 -0.014169 0.036063 25.858600 -40.985400 0.000008 0.000006 4.606240 1.064770 -72.809500 -11.754300 -0.000006 -0.000006 -0.007141 -0.080865 -19.865200
0.000000 0.000000 0.000000 0.000000 0.000000 -0.000000 136.634000 89.414700 -136.940000 86.615900 -5.549870 2.040230 15.735700 0.000005 -0.000001 107.105000 79.640800 -106.410000 8.984550 -0.406207 -0.000000 12.048200 6.066020 0.749990 16.377300 -0.000001 -0.000001 3.875910 -2.840360 1.406920 6.456720 -0.000001 -0.000000 -2.912330 -6.545750 -3.250600 12.994200 -0.242716 4.980390 -89.220100 -1.804670 -66.622600 5.348090 -0.000007 -0.000001 -70.616000 23.176700 3.750080 24.328600 0.000019 0.000005 4.064240 5.397300 -37.068100 22.291600 -0.000001 0.000005 5.239980 5.541740 -8.321240 12.994500 -0.242716 -4.980390 89.430800 1.666150 -71.136000 -5.348130 -0.000001 -0.000004 -41.336700 28.080300 -41.757700 -24.328900 0.000322 -0.000009 1.909430 2.154180 -41.585900 -22.291500 -0.000108 -0.000004 7.542260 5.527080 -7.666640 -2.192480 -6.469440 -0.000000 -174.667000 -14.764900 -23.069300 39.081100 -0.000007 -0.000012 -0.000544 0.007435 4.180730 40.985400 -0.000006 -0.000013 -0.385707 0.004643 -58.954300 11.754300 -0.000000 0.000003 -0.005786 -0.068885 -19.380200 -2.192510 6.469440 -0.000001 179.214000 12.598500 -175.637000 -39.081100 -0.002282 -0.040193 -0.031014 0.068702 26.546200 -40.985400 0.000008 0.000006 4.050480 2.555150 -75.280500 -11.754300 -0.000006 -0.000006 -0.114216 -0.197712 -19.936800
